<svg width="222" height="68" viewBox="0 0 222 68" fill="none" xmlns="http://www.w3.org/2000/svg">
<path d="M12.263 2.57229V30H10.561V2.57229H0V1H22.7367V2.57229H12.263Z" fill="#181819"/>
<path d="M48.3306 30L44.8393 22.6627H26.1612L22.6699 30H20.837L34.7584 1H36.3294L50.2508 30H48.3306ZM35.5439 3.14006H35.4566L26.903 21.0904H44.0974L35.5439 3.14006Z" fill="#181819"/>
<path d="M54.7795 30H52.6847L64.6859 15.238L53.1211 1H55.2595L65.8642 14.1461L76.4252 1H78.5636L66.9988 15.238L79 30H76.8616L65.8205 16.3298L54.7795 30Z" fill="#181819"/>
<path d="M87.6934 16.8584V29H86V0H98.3312C104.714 0 108.014 2.88253 108.014 8.42922C108.014 13.3208 105.452 16.1596 100.459 16.7274L108.882 29H106.798L98.5483 16.8584H87.6934ZM87.6934 15.2861H98.2877C103.628 15.2861 106.32 12.9714 106.32 8.42922C106.32 3.88705 103.628 1.57229 98.2877 1.57229H87.6934V15.2861Z" fill="#181819"/>
<path d="M131.737 13.4518V15.0241H115.975V27.4277H134.863V29H114.282V0H134.863V1.57229H115.975V13.4518H131.737Z" fill="#181819"/>
<path d="M160.842 29H140.826V0H142.519V27.4277H160.842V29Z" fill="#181819"/>
<path d="M165.673 29V0H167.367V29H165.673Z" fill="#181819"/>
<path d="M192.287 13.4518V15.0241H176.525V27.4277H195.413V29H174.832V0H195.413V1.57229H176.525V13.4518H192.287Z" fill="#181819"/>
<path d="M203.069 13.6702H218.874V15.2425H203.069V29H201.376V0H222V1.57229H203.069V13.6702Z" fill="#181819"/>
<path d="M73.0479 43.7039V50.2319H80.7279V53.2079H73.0479V60.0239H81.6879V62.9999H69.3999V40.7279H81.6879V43.7039H73.0479Z" fill="#181819"/>
<path d="M100.229 51.8959L107.141 62.9999H103.045L98.0212 54.9359L93.3172 62.9999H89.2532L96.1652 51.8959L89.2212 40.7599H93.3172L98.3732 48.8879L103.109 40.7599H107.173L100.229 51.8959Z" fill="#181819"/>
<path d="M130.538 47.3839C130.538 48.5146 130.271 49.5813 129.738 50.5839C129.205 51.5866 128.351 52.4079 127.178 53.0479C126.005 53.6666 124.501 53.9759 122.666 53.9759H118.634V62.9999H114.986V40.7599H122.666C124.373 40.7599 125.813 41.0586 126.986 41.6559C128.181 42.2319 129.066 43.0213 129.642 44.0239C130.239 45.0266 130.538 46.1466 130.538 47.3839ZM122.666 50.9999C124.053 50.9999 125.087 50.6906 125.77 50.0719C126.453 49.4319 126.794 48.5359 126.794 47.3839C126.794 44.9519 125.418 43.7359 122.666 43.7359H118.634V50.9999H122.666Z" fill="#181819"/>
<path d="M141.505 43.7039V50.2319H149.185V53.2079H141.505V60.0239H150.145V62.9999H137.857V40.7279H150.145V43.7039H141.505Z" fill="#181819"/>
<path d="M170.031 62.9999L164.911 54.1039H162.127V62.9999H158.479V40.7599H166.159C167.865 40.7599 169.305 41.0586 170.479 41.6559C171.673 42.2533 172.559 43.0533 173.135 44.0559C173.732 45.0586 174.031 46.1786 174.031 47.4159C174.031 48.8666 173.604 50.1893 172.751 51.3839C171.919 52.5573 170.628 53.3573 168.879 53.7839L174.383 62.9999H170.031ZM162.127 51.1919H166.159C167.524 51.1919 168.548 50.8506 169.231 50.1679C169.935 49.4853 170.287 48.5679 170.287 47.4159C170.287 46.2639 169.945 45.3679 169.263 44.7279C168.58 44.0666 167.545 43.7359 166.159 43.7359H162.127V51.1919Z" fill="#181819"/>
<path d="M196.905 40.7599V43.7359H190.985V62.9999H187.337V43.7359H181.385V40.7599H196.905Z" fill="#181819"/>
<path d="M211.768 63.2239C210.275 63.2239 208.931 62.9679 207.736 62.4559C206.541 61.9226 205.603 61.1759 204.92 60.2159C204.237 59.2559 203.896 58.1359 203.896 56.8559H207.8C207.885 57.8159 208.259 58.6053 208.92 59.2239C209.603 59.8426 210.552 60.1519 211.768 60.1519C213.027 60.1519 214.008 59.8533 214.712 59.2559C215.416 58.6373 215.768 57.8479 215.768 56.8879C215.768 56.1413 215.544 55.5333 215.096 55.0639C214.669 54.5946 214.125 54.2319 213.464 53.9759C212.824 53.7199 211.928 53.4426 210.776 53.1439C209.325 52.7599 208.141 52.3759 207.224 51.9919C206.328 51.5866 205.56 50.9679 204.92 50.1359C204.28 49.3039 203.96 48.1946 203.96 46.8079C203.96 45.5279 204.28 44.4079 204.92 43.4479C205.56 42.4879 206.456 41.7519 207.608 41.2399C208.76 40.7279 210.093 40.4719 211.608 40.4719C213.763 40.4719 215.523 41.0159 216.888 42.1039C218.275 43.1706 219.043 44.6426 219.192 46.5199H215.16C215.096 45.7093 214.712 45.0159 214.008 44.4399C213.304 43.8639 212.376 43.5759 211.224 43.5759C210.179 43.5759 209.325 43.8426 208.664 44.3759C208.003 44.9093 207.672 45.6773 207.672 46.6799C207.672 47.3626 207.875 47.9279 208.28 48.3759C208.707 48.8026 209.24 49.1439 209.88 49.3999C210.52 49.6559 211.395 49.9333 212.504 50.2319C213.976 50.6373 215.171 51.0426 216.088 51.4479C217.027 51.8533 217.816 52.4826 218.456 53.3359C219.117 54.1679 219.448 55.2879 219.448 56.6959C219.448 57.8266 219.139 58.8933 218.52 59.8959C217.923 60.8986 217.037 61.7093 215.864 62.3279C214.712 62.9253 213.347 63.2239 211.768 63.2239Z" fill="#181819"/>
<path d="M73.0479 43.7039V50.2319H80.7279V53.2079H73.0479V60.0239H81.6879V62.9999H69.3999V40.7279H81.6879V43.7039H73.0479Z" stroke="#181819"/>
<path d="M100.229 51.8959L107.141 62.9999H103.045L98.0212 54.9359L93.3172 62.9999H89.2532L96.1652 51.8959L89.2212 40.7599H93.3172L98.3732 48.8879L103.109 40.7599H107.173L100.229 51.8959Z" stroke="#181819"/>
<path d="M130.538 47.3839C130.538 48.5146 130.271 49.5813 129.738 50.5839C129.205 51.5866 128.351 52.4079 127.178 53.0479C126.005 53.6666 124.501 53.9759 122.666 53.9759H118.634V62.9999H114.986V40.7599H122.666C124.373 40.7599 125.813 41.0586 126.986 41.6559C128.181 42.2319 129.066 43.0213 129.642 44.0239C130.239 45.0266 130.538 46.1466 130.538 47.3839ZM122.666 50.9999C124.053 50.9999 125.087 50.6906 125.77 50.0719C126.453 49.4319 126.794 48.5359 126.794 47.3839C126.794 44.9519 125.418 43.7359 122.666 43.7359H118.634V50.9999H122.666Z" stroke="#181819"/>
<path d="M141.505 43.7039V50.2319H149.185V53.2079H141.505V60.0239H150.145V62.9999H137.857V40.7279H150.145V43.7039H141.505Z" stroke="#181819"/>
<path d="M170.031 62.9999L164.911 54.1039H162.127V62.9999H158.479V40.7599H166.159C167.865 40.7599 169.305 41.0586 170.479 41.6559C171.673 42.2533 172.559 43.0533 173.135 44.0559C173.732 45.0586 174.031 46.1786 174.031 47.4159C174.031 48.8666 173.604 50.1893 172.751 51.3839C171.919 52.5573 170.628 53.3573 168.879 53.7839L174.383 62.9999H170.031ZM162.127 51.1919H166.159C167.524 51.1919 168.548 50.8506 169.231 50.1679C169.935 49.4853 170.287 48.5679 170.287 47.4159C170.287 46.2639 169.945 45.3679 169.263 44.7279C168.58 44.0666 167.545 43.7359 166.159 43.7359H162.127V51.1919Z" stroke="#181819"/>
<path d="M196.905 40.7599V43.7359H190.985V62.9999H187.337V43.7359H181.385V40.7599H196.905Z" stroke="#181819"/>
<path d="M211.768 63.2239C210.275 63.2239 208.931 62.9679 207.736 62.4559C206.541 61.9226 205.603 61.1759 204.92 60.2159C204.237 59.2559 203.896 58.1359 203.896 56.8559H207.8C207.885 57.8159 208.259 58.6053 208.92 59.2239C209.603 59.8426 210.552 60.1519 211.768 60.1519C213.027 60.1519 214.008 59.8533 214.712 59.2559C215.416 58.6373 215.768 57.8479 215.768 56.8879C215.768 56.1413 215.544 55.5333 215.096 55.0639C214.669 54.5946 214.125 54.2319 213.464 53.9759C212.824 53.7199 211.928 53.4426 210.776 53.1439C209.325 52.7599 208.141 52.3759 207.224 51.9919C206.328 51.5866 205.56 50.9679 204.92 50.1359C204.28 49.3039 203.96 48.1946 203.96 46.8079C203.96 45.5279 204.28 44.4079 204.92 43.4479C205.56 42.4879 206.456 41.7519 207.608 41.2399C208.76 40.7279 210.093 40.4719 211.608 40.4719C213.763 40.4719 215.523 41.0159 216.888 42.1039C218.275 43.1706 219.043 44.6426 219.192 46.5199H215.16C215.096 45.7093 214.712 45.0159 214.008 44.4399C213.304 43.8639 212.376 43.5759 211.224 43.5759C210.179 43.5759 209.325 43.8426 208.664 44.3759C208.003 44.9093 207.672 45.6773 207.672 46.6799C207.672 47.3626 207.875 47.9279 208.28 48.3759C208.707 48.8026 209.24 49.1439 209.88 49.3999C210.52 49.6559 211.395 49.9333 212.504 50.2319C213.976 50.6373 215.171 51.0426 216.088 51.4479C217.027 51.8533 217.816 52.4826 218.456 53.3359C219.117 54.1679 219.448 55.2879 219.448 56.6959C219.448 57.8266 219.139 58.8933 218.52 59.8959C217.923 60.8986 217.037 61.7093 215.864 62.3279C214.712 62.9253 213.347 63.2239 211.768 63.2239Z" stroke="#181819"/>
<path d="M60 63C60 59.4543 59.3016 55.9433 57.9447 52.6675C56.5879 49.3918 54.5991 46.4153 52.0919 43.9081C49.5847 41.4009 46.6082 39.4121 43.3325 38.0553C40.0567 36.6984 36.5457 36 33 36C29.4543 36 25.9433 36.6984 22.6675 38.0553C19.3918 39.4121 16.4153 41.4009 13.9081 43.9081C11.4009 46.4153 9.41213 49.3918 8.05525 52.6675C6.69837 55.9433 6 59.4543 6 63H8.21192C8.21192 59.7448 8.85308 56.5214 10.0988 53.514C11.3445 50.5066 13.1704 47.774 15.4722 45.4722C17.774 43.1704 20.5066 41.3445 23.514 40.0988C26.5214 38.8531 29.7448 38.2119 33 38.2119C36.2552 38.2119 39.4786 38.8531 42.486 40.0988C45.4934 41.3445 48.226 43.1704 50.5278 45.4722C52.8296 47.774 54.6555 50.5066 55.9012 53.514C57.1469 56.5214 57.7881 59.7448 57.7881 63H60Z" fill="#E9C039"/>
<path d="M52.0394 62.8682C53.5289 62.8682 54.7535 61.6562 54.5702 60.178C54.3288 58.2305 53.8258 56.3202 53.0717 54.4996C51.9727 51.8464 50.3619 49.4357 48.3313 47.405C46.3007 45.3744 43.8899 43.7636 41.2368 42.6646C38.5836 41.5656 35.7399 41 32.8682 41C29.9964 41 27.1528 41.5656 24.4996 42.6646C21.8464 43.7636 19.4357 45.3744 17.405 47.405C15.3744 49.4357 13.7636 51.8464 12.6646 54.4996C11.9105 56.3202 11.4075 58.2305 11.1661 60.178C10.9829 61.6562 12.2075 62.8682 13.697 62.8682V62.8682C15.1865 62.8682 16.3714 61.6528 16.6142 60.1832C16.8189 58.9441 17.1651 57.7295 17.6479 56.5637C18.4759 54.565 19.6893 52.7489 21.2191 51.2191C22.7489 49.6893 24.565 48.4759 26.5637 47.6479C28.5625 46.82 30.7047 46.3939 32.8682 46.3939C35.0316 46.3939 37.1738 46.82 39.1726 47.6479C41.1713 48.4759 42.9874 49.6893 44.5172 51.2191C46.047 52.7489 47.2605 54.565 48.0884 56.5637C48.5713 57.7295 48.9175 58.9441 49.1222 60.1832C49.3649 61.6528 50.5499 62.8682 52.0394 62.8682V62.8682Z" fill="#E9C039"/>
<path fill-rule="evenodd" clip-rule="evenodd" d="M43.1405 47.357C44.0479 47.9869 44.2728 49.2331 43.643 50.1405L31.4394 67.721L22.924 62.2859C21.9929 61.6916 21.7199 60.455 22.3141 59.524C22.9084 58.5929 24.145 58.3199 25.076 58.9141L30.3478 62.279L40.357 47.8595C40.9869 46.9521 42.2331 46.7272 43.1405 47.357Z" fill="#0A76C4"/>
</svg>
